<?xml version='1.0' encoding='utf-8'?>
<!DOCTYPE svg PUBLIC '-//W3C//DTD SVG 1.1//EN' 'http://www.w3.org/Graphics/SVG/1.1/DTD/svg11.dtd'>
<svg version="1.1" xmlns="http://www.w3.org/2000/svg" viewBox="0 0 512 512" xmlns:xlink="http://www.w3.org/1999/xlink" enable-background="new 0 0 512 512">
  <g>
    <g>
      <path d="m296.8,444.3l-152.6-92.7v-191.1l152.6-92.7v376.5zm-244.9-277.5h51.5v175.8h-51.5v-175.8zm275.4-153.2c-6.4-3.6-14.3-3.5-20.6,0.3l-184.3,112h-91c-11.3,0-20.4,9.1-20.4,20.4v216.7c0,11.3 9.1,20.4 20.4,20.4h86.6l188.6,114.6c6.3,3.8 14.2,4 20.6,0.3 6.4-3.6 10.4-10.4 10.4-17.8v-449.1c0.1-7.4-3.9-14.2-10.3-17.8v-1.77636e-15z"/>
      <path d="m455.5,123.5c-7.2-8.7-20.1-9.9-28.8-2.6-8.7,7.2-9.9,20.1-2.6,28.8 48.8,58.7 48.8,154.1 0,212.8-7.2,8.7-6,21.5 2.6,28.8 3.8,3.2 19.5,8.5 28.8-2.7 60.5-73.4 60.8-192 0-265.1z"/>
      <path d="m402.3,187.4c-7.2-8.7-20.1-9.9-28.8-2.6-8.7,7.2-9.9,20.1-2.6,28.8 19.1,23 19.1,61.9 0,84.9-7.2,8.7-6.3,21.8 2.6,28.8 10.7,8.3 24.7,2.2 28.8-2.7 31.9-38.5 31.9-98.7 0-137.2z"/>
    </g>
  </g>
</svg>
